<svg version="1.1" xmlns="http://www.w3.org/2000/svg" style="display: block;" viewBox="0 0 2048 2048" width="32" height="32" preserveAspectRatio="none">
<path transform="translate(0,0)" fill="rgb(171,72,254)" d="M 940.972 938.532 C 968.154 937.299 999.342 937.832 1026.7 937.934 C 1008.76 966.906 992.521 998.373 975.011 1027.58 C 953.896 1062.8 931.782 1097.1 910.71 1132.47 C 895.136 1133.73 879.656 1133.59 863.31 1135.09 C 787.092 1141.5 711.761 1155.92 638.564 1178.11 C 572.019 1198.89 449.284 1253.36 416.06 1317.18 C 409.742 1307.55 402.55 1298.92 396.225 1288.61 C 374.251 1252.81 373.041 1222.32 374.394 1182.15 C 366.312 1200.94 361.205 1214.94 360.604 1236.01 C 358.084 1324.21 453.617 1386.36 523.982 1420.66 C 542.016 1429.45 560.036 1439.44 579.849 1439.44 C 620.987 1439.46 674.461 1430.63 705.388 1401.13 C 738.121 1369.92 703.885 1342.46 675.148 1330.66 C 612.911 1305.1 533.195 1307.12 473.826 1339.07 C 449.947 1351.92 458.182 1360.25 436.523 1338.68 C 502.115 1225.36 769.457 1168.28 891.324 1167.92 C 880.631 1181.62 869.431 1205.22 858.517 1216.82 C 825.846 1216.22 792.547 1218.66 760.485 1225.97 C 744.103 1230.35 717.997 1236.93 707.956 1251.86 C 700.954 1262.26 711.907 1272.96 720.979 1277.2 C 751.395 1291.41 791.573 1292 822.985 1281.29 C 817.604 1287.59 813.386 1295.09 808.663 1301.92 C 800.283 1314.03 790.819 1326.16 783.816 1339.1 C 781.105 1344.11 778.89 1349.33 777.632 1354.91 C 775.4 1364.79 776.536 1373.84 782.065 1382.38 C 804.636 1417.25 860.497 1432.74 898.979 1440.78 C 988.868 1459.55 1153.52 1460.93 1232.47 1408.52 C 1246.58 1399.15 1262.7 1385.77 1265.78 1368.19 C 1267.55 1358.14 1264.79 1349.97 1259.14 1341.75 C 1264.38 1332.91 1278.02 1316.1 1284.82 1307.43 C 1292.22 1298.38 1299.63 1287.79 1306.58 1278.29 C 1328.8 1279.68 1407.72 1284.61 1415.63 1246.4 C 1417.91 1235.37 1393.28 1221.86 1384.4 1218.97 C 1380.24 1217.62 1358.94 1212.45 1356.47 1209.99 C 1357.33 1204.34 1384.74 1173.95 1391.45 1163.37 C 1459.13 1181.37 1547.15 1216.93 1600.88 1262.78 C 1627.31 1285.34 1652.54 1321.11 1653.72 1356.59 C 1654.22 1371.69 1654.03 1387.51 1653.95 1402.72 L 1653.94 1475.76 L 1653.97 1579.44 C 1653.95 1601.8 1656.32 1627.09 1651.41 1649 C 1646.5 1670.87 1634.04 1689.35 1619.5 1706.06 C 1588.41 1741.78 1549.65 1764.5 1507.39 1784.37 C 1377.44 1845.46 1233.05 1863.77 1091.26 1873.07 C 1065.5 1874.76 1039.82 1874.64 1014.03 1874.6 C 826.259 1874.26 537.641 1835.01 393.385 1706.74 C 359.587 1676.69 324.433 1635.36 321.983 1588.01 C 321.269 1574.22 321.91 1560.24 321.757 1546.42 C 321.223 1498.42 322.061 1450.48 321.888 1402.5 C 321.784 1373.65 322.205 1344.7 321.752 1315.87 C 321.206 1281.08 317.152 1230.6 325.148 1197.84 C 333.054 1165.46 353.454 1136.01 375.728 1111.8 C 403.859 1081.21 438.11 1059.74 474.584 1040.56 C 616.022 966.194 783.233 944.885 940.972 938.532 z M 1324.2 1803.25 C 1340.28 1798.25 1409.87 1783.14 1416.31 1773.34 C 1418.64 1769.78 1418.88 1719.17 1417.08 1713.8 C 1416.66 1712.54 1416.54 1712.49 1415.9 1711.54 C 1408.91 1710.78 1361.71 1725.68 1352.07 1728.59 L 1352.18 1590.18 C 1352.17 1583.33 1352.43 1543.83 1351.52 1540.23 C 1349.49 1539.16 1350.39 1539.37 1348.95 1539.17 C 1331.33 1543.17 1314.25 1547.43 1296.49 1550.89 C 1289.89 1552.17 1257.49 1557.18 1253.47 1558.85 C 1251.12 1562.77 1250.03 1611.65 1254.02 1612.39 C 1271.58 1615.61 1297.83 1606.36 1316.1 1603.01 C 1315.56 1654.05 1315.71 1705.28 1316.92 1756.3 C 1317.06 1762.1 1315.81 1800.29 1317.13 1802.78 C 1319.62 1804.22 1321.29 1803.63 1324.2 1803.25 z M 546.006 1682.51 C 545.308 1645.48 546.352 1608.34 545.457 1571.3 C 545.194 1560.4 545.326 1549.55 545.797 1538.66 C 554.046 1542.21 570.935 1551.05 578.997 1550.35 C 580.723 1549.2 582.655 1547.82 582.623 1545.46 C 582.408 1529.86 582.062 1513.6 582.161 1498.03 C 577.119 1495.08 518.936 1468.45 513.023 1467.07 L 512.981 1734.09 C 520.838 1741.42 596.481 1774.14 604.079 1771.12 C 606.266 1764.31 605.154 1729.49 605.186 1719.75 C 605.309 1715.25 605.911 1711.44 604.112 1707.44 C 597.157 1701.08 557.174 1686.76 546.006 1682.51 z M 1450.54 1312.46 C 1414.2 1313.83 1358.25 1325.32 1333.93 1352.44 C 1293.37 1397.66 1373.67 1432.56 1407.95 1437.74 C 1431.99 1441.36 1449.9 1445.03 1473.23 1442.97 C 1482.91 1441.85 1496.53 1441.77 1505.83 1439.14 C 1537.49 1430.18 1570.68 1412.54 1592.3 1387.32 C 1606.52 1370.74 1600.43 1356.7 1584.11 1344.83 C 1545.44 1316.72 1496.95 1311.38 1450.54 1312.46 z M 1076.86 1832.3 C 1085.72 1827.8 1079.51 1798.44 1081.22 1789.22 C 1082.05 1784.68 1082.03 1772.51 1079.84 1768.39 C 1072.95 1764.23 1017.1 1765.14 1007.14 1766.04 C 1000.89 1774.14 1005.6 1793.85 1004.51 1804.68 C 1003.86 1811.18 1002.73 1828.94 1007.34 1832.85 C 1017.82 1835.13 1064.53 1832.91 1076.86 1832.3 z M 917.919 1830.2 C 924.321 1822.25 918.976 1796.8 920.441 1785.81 C 921.025 1781.43 920.492 1768.46 918.655 1764.8 C 911.247 1760.86 855.004 1756.61 845.063 1757.12 C 842.351 1765.4 845.073 1779.68 845.03 1789.06 C 845.376 1799.5 842.173 1811.1 845.872 1821.1 C 846.771 1823.53 852.223 1825.07 854.394 1825.15 C 871.73 1825.82 901.351 1832.02 917.919 1830.2 z M 1184.24 1824.9 C 1196.49 1823.62 1231.14 1821.24 1240.63 1815.74 C 1243.66 1808.59 1243.39 1797 1243.22 1789.27 C 1242.97 1777.5 1244.16 1765.05 1241.85 1753.56 C 1240.98 1749.24 1230.58 1750.99 1228.16 1751.36 C 1219.08 1752.41 1174.87 1756.02 1169.3 1759.67 C 1166.53 1768.4 1167.13 1813.74 1168.7 1823.55 C 1172.4 1827.2 1179.24 1825.43 1184.24 1824.9 z M 759.354 1811.36 C 762.364 1806.83 761.042 1785.97 760.825 1779.51 C 760.595 1772.66 763.907 1745.68 756.596 1743.58 C 736.224 1737.74 709.441 1731.02 688.455 1728.82 C 684.915 1737.44 687.51 1755.02 687.107 1764.9 C 686.763 1773.33 684.864 1786.4 687.926 1793.82 C 695.14 1800.17 748.795 1810.93 759.354 1811.36 z M 871.979 1620.08 C 875.43 1611.77 873.709 1594.49 873.916 1585.04 C 874.333 1565.94 877.275 1563.49 857.718 1561.29 C 836.691 1558.92 814.77 1556.38 794.124 1552.77 C 793.568 1562.9 793.43 1595.35 794.08 1604.41 C 795.111 1618.79 854.394 1618.8 866.455 1621.39 C 867.409 1621.6 870.915 1620.41 871.979 1620.08 z M 1024.45 1630.14 C 1028.73 1623.27 1027.28 1584.15 1026.7 1573.64 C 1009.64 1570.9 967.295 1571.45 947.624 1570.76 C 945.962 1580.01 943.894 1618.15 948.058 1625.57 C 956.823 1631.8 1011.46 1630.76 1024.45 1630.14 z M 455.284 1699.93 C 456.669 1683.08 455.966 1652.81 455.937 1635.43 C 451.499 1631.01 407.606 1598.58 403.495 1597.43 C 400.82 1603.48 401.334 1648.68 401.896 1656.9 C 410.367 1669.97 441.488 1694.08 455.284 1699.93 z M 910.751 1047.52 C 919.455 1046.83 946.733 1046.38 951.298 1042.85 C 955.645 1032.54 954.082 1018.23 954.237 1007.21 C 954.669 976.437 955.713 977 926.115 979.584 C 915.754 980.16 893.935 980.021 885.458 983.466 C 882.074 988.688 883.819 1036.57 884.728 1045.39 C 885.306 1051.01 906.091 1047.56 910.751 1047.52 z M 488.4 1148.21 C 497.756 1143.32 529.633 1128.01 534.879 1120.65 C 536.123 1115.38 535.855 1062.92 534.085 1059.05 C 531.635 1057.56 532.982 1057.85 530.119 1057.75 C 522.985 1061.07 485.659 1077.84 484.76 1082.97 C 483.401 1090.72 482.33 1140.81 484.78 1146.91 C 486.835 1147.94 486.206 1147.82 488.4 1148.21 z M 1555.81 1648.95 C 1551.94 1649.84 1502.98 1676.4 1499.32 1679.36 C 1497.02 1684.41 1496.54 1740.54 1498.53 1744.57 C 1513.45 1739.95 1547.36 1721.12 1557.95 1709.06 C 1558.27 1700.24 1559.54 1654.08 1556.76 1649.61 L 1555.81 1648.95 z M 798.442 990.457 C 790.154 991.047 744.469 995.504 739.917 1001.14 C 735.776 1006.27 737.851 1051.06 738.417 1059.47 C 738.586 1061.98 740.141 1063.36 741.95 1064.79 L 743.753 1065.08 C 752.688 1064.9 796.515 1059.11 803.027 1054.61 C 807.251 1044.98 804.859 1029.77 804.929 1019.07 C 804.978 1011.65 808.421 991.15 798.442 990.457 z M 600.837 1034.06 C 601.489 1043.65 600.446 1092.4 603.578 1096.22 C 606.823 1097.79 607.758 1097.4 611.316 1097.03 L 612.524 1096.54 C 621.015 1093.18 629.612 1090.86 638.387 1088.51 C 642.316 1087.46 653.18 1085.32 656.163 1083.88 C 658.816 1082.62 660.928 1080.45 662.111 1077.76 C 666.608 1067.58 662.687 1041.79 664.044 1029.83 C 664.61 1024.83 664.298 1018.8 659.599 1016.01 C 658.851 1016.05 655.132 1016.16 654.653 1016.28 C 640.329 1019.29 612.828 1026.45 600.837 1034.06 z M 1530.94 1478.4 C 1530.58 1486.41 1529.06 1528.94 1532.52 1532.88 L 1535.91 1533 C 1553.73 1522.33 1573.43 1511.84 1588.23 1497.32 C 1593.79 1491.86 1593.29 1448.22 1590.85 1445.08 C 1590.06 1445.01 1587.72 1444.72 1587.02 1444.73 C 1564.07 1461.99 1553.96 1465.38 1530.94 1478.4 z M 455.426 1491.18 C 458.831 1482.75 456.413 1448.58 457.57 1436.49 C 447.99 1428.9 436.86 1421.67 426.808 1414.54 C 422.119 1411.21 405.02 1396.39 401.726 1394.93 C 397.649 1401.04 401.427 1414.38 401.026 1421.96 C 400.659 1428.89 399.465 1436.68 400.054 1443.6 C 404.455 1459.14 426.027 1472.56 438.339 1481.58 C 443.673 1485.49 450.179 1489.26 455.426 1491.18 z M 724.899 1540.19 C 715.518 1536.46 658.601 1520.64 649.175 1520.04 C 646.529 1524.6 647.712 1538.69 648.172 1544.14 C 648.871 1552.41 644.556 1575.14 653.352 1578.18 C 666.306 1582.65 712.696 1598 723.96 1595.66 C 724.532 1578.2 725.188 1557.62 724.899 1540.19 z M 1463.17 1505.03 C 1454.75 1508.18 1401.58 1524.91 1399.33 1528.1 C 1397.42 1536.57 1399.38 1545.32 1399.53 1553.94 C 1399.66 1562.33 1396.97 1573.72 1400.72 1581.37 C 1403.69 1583.23 1402.12 1582.73 1405.59 1582.94 C 1415.07 1579.86 1464.2 1565.63 1468.46 1558.13 C 1470.3 1554.88 1470.12 1512.03 1468.9 1506.97 L 1467.44 1505.16 C 1465.96 1505.07 1464.64 1504.91 1463.17 1505.03 z M 1171.89 1566.41 C 1161.22 1567.42 1109.51 1570.41 1103.34 1572.48 C 1101.18 1580.12 1101.32 1617.3 1102.34 1625.96 C 1105.25 1629.31 1107.45 1628.74 1111.75 1628.58 C 1124.27 1628.61 1170.02 1627.11 1179.14 1621.73 C 1182.34 1615.66 1183.39 1572 1179.97 1566.53 C 1176.22 1565.92 1175.55 1566.06 1171.89 1566.41 z"/>
<path transform="translate(0,0)" fill="rgb(171,72,254)" d="M 1657.91 259.802 C 1662.75 261.808 1682.88 275.156 1688.63 278.863 C 1681.4 290.971 1671.53 304.994 1663.65 316.961 C 1646.46 343.593 1628.86 369.954 1610.84 396.035 C 1580.92 439.996 1550.93 486.538 1521.41 531.033 L 1439.94 655.457 C 1431.36 668.575 1401.89 717.981 1392.69 724.821 C 1369.63 724.391 1352.02 724.859 1332.62 738.551 C 1314.34 751.451 1306.04 768.752 1306.47 791.07 C 1306.76 806.168 1309.45 816.512 1318.44 828.736 C 1329.04 842.891 1344.8 852.282 1362.3 854.864 C 1409.5 861.998 1450.17 819.16 1438.5 772.546 C 1435.36 759.997 1429.47 751.801 1421.71 741.695 L 1585.92 480.057 C 1626.02 416.546 1667.39 352.871 1705.21 287.991 C 1712.27 291.939 1735.24 303.896 1737.61 310.07 C 1736.9 315.381 1735.45 319.911 1733.89 325.016 C 1690.78 466.883 1653.28 611.155 1630.78 757.882 C 1626.25 788.684 1622.44 819.587 1619.36 850.566 C 1614.89 896.966 1624.03 890.119 1589.16 924.448 C 1512.15 996.547 1432.44 1066.23 1363.58 1146.43 C 1339.73 1173.63 1320.44 1204.78 1298.21 1233.07 C 1274.59 1263.12 1253.67 1296.25 1230.09 1325.98 C 1218.35 1319.5 1207.29 1311.59 1195.86 1304.65 C 1173.95 1291.35 1152.42 1277.06 1130.57 1263.75 L 998.431 1183.12 C 979.838 1171.76 959.812 1160.63 941.674 1148.87 C 957.912 1124.77 975.862 1093.43 990.938 1068.08 C 1012.48 1028.67 1040.73 989.798 1059.5 949.166 C 1096.31 869.481 1125.74 785.229 1152.93 701.835 C 1158.41 685.045 1166.05 657.538 1173.77 642.685 C 1177.12 636.235 1215.59 613.039 1223.95 607.164 C 1258.94 582.735 1293.68 557.951 1328.17 532.815 C 1444.39 447.048 1549.83 355.227 1657.91 259.802 z"/>
<path transform="translate(0,0)" fill="rgb(171,72,254)" d="M 920.875 1183.92 C 934.196 1190.44 958.666 1207.42 972.672 1215.94 L 1104.12 1297.05 L 1174.97 1340.92 C 1183.94 1346.59 1203.4 1358.5 1210.59 1365.22 L 1208.78 1367.57 C 1190.24 1391.58 1176.64 1400.59 1146.62 1407.74 C 1128.92 1411.95 1112.81 1415.26 1094.6 1417.58 C 1042.9 1430.79 831.943 1422.64 813.951 1359.26 C 820.908 1342.69 835.418 1322.53 845.35 1306.77 C 861.065 1281.84 876.647 1256.81 892.095 1231.71 C 901.412 1216.64 912.656 1199.33 920.875 1183.92 z"/>
<path transform="translate(0,0)" fill="rgb(171,72,254)" d="M 1753.4 174.051 C 1757.16 174.465 1760.78 174.907 1764.31 176.35 C 1768.47 178.053 1771.57 181.153 1773.13 185.405 C 1777.88 198.361 1752.78 269.18 1746.37 283.173 C 1737.45 279.844 1725.51 272.236 1717.12 267.125 C 1706.93 259.874 1687.15 248.764 1675.94 242.166 C 1680.6 236.545 1690.69 227.724 1696.41 222.441 C 1711.94 208.09 1734.34 182.212 1753.4 174.051 z"/>
</svg>